HIERARCHY
ROOT Hips
{
	OFFSET 0.000000 0.000000 0.000000
	CHANNELS 6 Xposition Yposition Zposition Zrotation Yrotation Xrotation 
	JOINT LowerBack
	{
		OFFSET 0.000000 0.000000 0.000000
		CHANNELS 3 Zrotation Yrotation Xrotation
		JOINT Spine
		{
			OFFSET 0.028270 2.035590 -0.193380
			CHANNELS 3 Zrotation Yrotation Xrotation
			JOINT Spine1
			{
				OFFSET 0.056720 2.048850 -0.042750
				CHANNELS 3 Zrotation Yrotation Xrotation
				JOINT Neck
				{
					OFFSET 0.000000 0.000000 0.000000
					CHANNELS 3 Zrotation Yrotation Xrotation
					JOINT Neck1
					{
						OFFSET -0.054170 1.746240 0.172020
						CHANNELS 3 Zrotation Yrotation Xrotation
						JOINT Head
						{
							OFFSET 0.104070 1.761360 -0.123970
							CHANNELS 3 Zrotation Yrotation Xrotation
							End Site
							{
								OFFSET 0.000000 0.000000 0.000000
							}
						}
					}
				}
				JOINT LeftShoulder
				{
					OFFSET 0.000000 0.000000 0.000000
					CHANNELS 3 Zrotation Yrotation Xrotation
					JOINT LeftArm
					{
						OFFSET 3.362410 1.200890 -0.311210
						CHANNELS 3 Zrotation Yrotation Xrotation
						JOINT LeftForeArm
						{
							OFFSET 4.983000 -0.000000 -0.000000
							CHANNELS 3 Zrotation Yrotation Xrotation
							JOINT LeftHand
							{
								OFFSET 3.483560 -0.000000 -0.000000
								CHANNELS 3 Zrotation Yrotation Xrotation
								JOINT LeftFingerBase
								{
									OFFSET 0.000000 0.000000 0.000000
									CHANNELS 3 Zrotation Yrotation Xrotation
									JOINT LeftHandIndex1
									{
										OFFSET 0.715260 -0.000000 -0.000000
										CHANNELS 3 Zrotation Yrotation Xrotation
										End Site
										{
											OFFSET 0.000000 0.000000 0.000000
										}
									}
								}
								JOINT LThumb
								{
									OFFSET 0.000000 0.000000 0.000000
									CHANNELS 3 Zrotation Yrotation Xrotation
									End Site
									{
										OFFSET 0.000000 0.000000 0.000000
									}
								}
							}
						}
					}
				}
				JOINT RightShoulder
				{
					OFFSET 0.000000 0.000000 0.000000
					CHANNELS 3 Zrotation Yrotation Xrotation
					JOINT RightArm
					{
						OFFSET -3.136600 1.374050 -0.404650
						CHANNELS 3 Zrotation Yrotation Xrotation
						JOINT RightForeArm
						{
							OFFSET -5.241900 -0.000000 -0.000000
							CHANNELS 3 Zrotation Yrotation Xrotation
							JOINT RightHand
							{
								OFFSET -3.444170 -0.000000 -0.000000
								CHANNELS 3 Zrotation Yrotation Xrotation
								JOINT RightFingerBase
								{
									OFFSET 0.000000 0.000000 0.000000
									CHANNELS 3 Zrotation Yrotation Xrotation
									JOINT RightHandIndex1
									{
										OFFSET -0.622530 -0.000000 -0.000000
										CHANNELS 3 Zrotation Yrotation Xrotation
										End Site
										{
											OFFSET 0.000000 0.000000 0.000000
										}
									}
								}
								JOINT RThumb
								{
									OFFSET 0.000000 0.000000 0.000000
									CHANNELS 3 Zrotation Yrotation Xrotation
									End Site
									{
										OFFSET 0.000000 0.000000 0.000000
									}
								}
							}
						}
					}
				}
			}
		}
	}
}
}
MOTION
Frames: 11
Frame Time: 0.008333
-11.082046 16.742129 1.604649 -12.629440 80.088896 12.533632 4.556116 -1.695055 5.381393 -0.170196 -1.754060 -1.102539 -7.357304 -1.718716 1.976832 8.081050 0.334448 3.572062 -4.656761 -0.394680 2.568867 0.000000 0.000000 0.000000 0.052642 -2.087722 0.417733 -38.224020 -31.500862 -2.908274 -0.840191 -68.196996 -0.069895 11.504049 -3.117181 -0.360773 -0.192973 0.416948 -0.000000 0.000000 0.000000 0.000000 0.000000 0.000000 0.000000 17.644268 -3.140120 0.646472 49.685694 13.941764 -13.744849 2.525629 31.569032 0.007991 -1.668370 7.791468 -0.120547 0.079594 -0.121300 -0.000000 0.000000 0.000000 0.000000 0.000000 0.000000 0.000000 
-10.915893 16.723455 1.633217 -16.070274 80.336034 9.215140 5.410543 -1.691656 5.538336 0.014723 -1.772243 -1.090295 -7.373439 -1.743593 1.947818 8.218638 0.679689 3.673230 -4.675391 -0.394766 2.593244 0.000000 0.000000 0.000000 -0.456872 -2.077896 0.485166 -38.994488 -30.668523 -3.097746 -0.899200 -67.745305 -0.070539 11.973553 -3.200985 -0.383543 -0.200302 0.407570 -0.000000 0.000000 0.000000 0.000000 0.000000 0.000000 0.000000 17.810131 -2.926029 0.633274 49.534860 14.319543 -14.221649 2.527668 30.930656 0.007607 -2.080738 8.017273 -0.153457 0.080914 -0.121245 -0.000000 0.000000 0.000000 0.000000 0.000000 0.000000 0.000000 
-10.753587 16.711336 1.659437 -19.791922 80.671325 5.567453 6.251188 -1.713812 5.757953 0.201463 -1.808305 -1.065446 -7.370196 -1.786822 1.912800 8.403164 1.053378 3.813347 -4.679462 -0.394076 2.626921 0.000000 0.000000 0.000000 -0.925466 -2.118484 0.533167 -39.997473 -29.845852 -3.270365 -0.960860 -67.136854 -0.071690 12.564539 -3.248033 -0.406622 -0.208055 0.396960 -0.000000 0.000000 0.000000 0.000000 0.000000 0.000000 0.000000 17.948433 -2.709844 0.612678 49.457644 14.746971 -14.746631 2.528039 30.149243 0.007166 -2.530737 8.243032 -0.190668 0.082198 -0.120743 -0.000000 0.000000 0.000000 0.000000 0.000000 0.000000 0.000000 
-10.595153 16.705741 1.684181 -23.821441 81.090540 1.566921 7.052795 -1.760680 6.025017 0.384812 -1.860879 -1.029501 -7.347150 -1.846705 1.877931 8.633835 1.442834 3.986230 -4.666170 -0.392485 2.668346 0.000000 0.000000 0.000000 -1.361297 -2.189165 0.561642 -41.194675 -29.068384 -3.406635 -1.024208 -66.352335 -0.073341 13.282337 -3.247026 -0.428512 -0.216108 0.385107 -0.000000 0.000000 0.000000 0.000000 0.000000 0.000000 0.000000 18.047579 -2.498243 0.581818 49.485454 15.219937 -15.341155 2.526538 29.231523 0.006676 -3.002356 8.449369 -0.230880 0.083354 -0.119767 -0.000000 0.000000 0.000000 0.000000 0.000000 0.000000 0.000000 
-10.440684 16.706359 1.708801 -28.056092 81.581792 -2.682686 7.764526 -1.828141 6.325232 0.553735 -1.925075 -0.985839 -7.303618 -1.918196 1.841942 8.913245 1.828388 4.190203 -4.636254 -0.390154 2.717241 0.000000 0.000000 0.000000 -1.739086 -2.319514 0.568006 -42.572180 -28.286799 -3.513695 -1.085670 -65.416677 -0.075308 14.110731 -3.193376 -0.446914 -0.223892 0.371888 -0.000000 0.000000 0.000000 0.000000 0.000000 0.000000 0.000000 18.114191 -2.306701 0.542065 49.632227 15.736890 -15.980470 2.522883 28.189342 0.006124 -3.500826 8.619615 -0.273693 0.084452 -0.118291 -0.000000 0.000000 0.000000 0.000000 0.000000 0.000000 0.000000 
-10.289795 16.712671 1.734143 -32.508229 82.129789 -7.182803 8.366143 -1.909601 6.638949 0.703371 -1.995727 -0.936900 -7.241844 -1.995689 1.811388 9.231896 2.200277 4.415583 -4.588942 -0.387078 2.771083 0.000000 0.000000 0.000000 -2.079578 -2.480148 0.556455 -44.069017 -27.533742 -3.568057 -1.144968 -64.318844 -0.077395 15.030662 -3.087466 -0.460129 -0.231174 0.357408 -0.000000 0.000000 0.000000 0.000000 0.000000 0.000000 0.000000 18.137883 -2.133677 0.491369 49.923971 16.284712 -16.681250 2.516760 27.051949 0.005519 -4.002549 8.734783 -0.316206 0.085388 -0.116391 -0.000000 0.000000 0.000000 0.000000 0.000000 0.000000 0.000000 
-10.142140 16.724067 1.761264 -37.057515 82.714989 -11.805570 8.821144 -1.995703 6.952343 0.824988 -2.064685 -0.885337 -7.163899 -2.070755 1.787145 9.581834 2.538828 4.655077 -4.527237 -0.383504 2.827971 0.000000 0.000000 0.000000 -2.374013 -2.681852 0.528462 -45.648670 -26.775523 -3.571224 -1.200088 -63.081782 -0.079265 16.002316 -2.938233 -0.466558 -0.237373 0.341717 0.000000 0.000000 0.000000 0.000000 0.000000 0.000000 0.000000 18.126384 -1.990504 0.431457 50.365013 16.864412 -17.406845 2.508312 25.843571 0.004862 -4.508632 8.786778 -0.357520 0.086255 -0.114163 -0.000000 0.000000 0.000000 0.000000 0.000000 0.000000 0.000000 
-9.997156 16.739882 1.790669 -41.635406 83.317418 -16.469993 9.117671 -2.076637 7.251565 0.914910 -2.124507 -0.833079 -7.073402 -2.135656 1.772856 9.947468 2.836248 4.899156 -4.453620 -0.379591 2.885350 0.000000 0.000000 0.000000 -2.637683 -2.904401 0.489732 -47.258254 -26.019609 -3.507985 -1.251940 -61.709285 -0.080576 16.978549 -2.758395 -0.465496 -0.242137 0.324989 0.000000 0.000000 0.000000 0.000000 0.000000 0.000000 0.000000 18.078160 -1.873631 0.362423 50.961696 17.464845 -18.141140 2.497564 24.603154 0.004166 -5.003179 8.769046 -0.395234 0.087054 -0.111758 -0.000000 0.000000 0.000000 0.000000 0.000000 0.000000 0.000000 
-9.854265 16.759481 1.822539 -46.150698 83.918576 -21.071932 9.253427 -2.143044 7.526114 0.971405 -2.168213 -0.781793 -6.974210 -2.183254 1.770450 10.310969 3.087335 5.139416 -4.371676 -0.375544 2.940981 0.000000 0.000000 0.000000 -2.883126 -3.132182 0.446067 -48.853546 -25.265938 -3.367902 -1.302345 -60.208654 -0.080990 17.903502 -2.564234 -0.457244 -0.245122 0.307437 0.000000 0.000000 0.000000 0.000000 0.000000 0.000000 0.000000 17.994556 -1.778544 0.285151 51.710495 18.075893 -18.853767 2.484896 23.371346 0.003451 -5.473146 8.682525 -0.427547 0.087826 -0.109334 -0.000000 0.000000 0.000000 0.000000 0.000000 0.000000 0.000000 
-9.712872 16.782297 1.856680 -50.495909 84.502515 -25.492073 9.237213 -2.187367 7.768847 0.995168 -2.190294 -0.732705 -6.870184 -2.207996 1.780999 10.653091 3.290167 5.367764 -4.285433 -0.371558 2.992751 0.000000 0.000000 0.000000 -3.121954 -3.347451 0.403132 -50.400583 -24.517716 -3.141967 -1.354335 -58.582881 -0.080217 18.716538 -2.373205 -0.443297 -0.246052 0.289313 0.000000 0.000000 0.000000 0.000000 0.000000 0.000000 0.000000 17.877977 -1.699216 0.200670 52.599654 18.690256 -19.504321 2.471174 22.187180 0.002740 -5.906275 8.536267 -0.453160 0.088638 -0.107038 -0.000000 0.000000 0.000000 0.000000 0.000000 0.000000 0.000000 
-9.572527 16.807949 1.892382 -54.575236 85.056535 -29.623559 9.090222 -2.204691 7.974706 0.989706 -2.187435 -0.687436 -6.765085 -2.206703 1.803125 10.955207 3.452950 5.579398 -4.198399 -0.367794 3.039551 0.000000 0.000000 0.000000 -3.367441 -3.534496 0.366786 -51.874036 -23.777602 -2.823570 -1.411682 -56.833949 -0.078093 19.359105 -2.200256 -0.425553 -0.244767 0.270874 0.000000 0.000000 0.000000 0.000000 0.000000 0.000000 0.000000 17.728885 -1.621397 0.110091 53.614668 19.289414 -20.058431 2.457244 21.097555 0.002065 -6.282662 8.338964 -0.470572 0.089496 -0.104975 -0.000000 0.000000 0.000000 0.000000 0.000000 0.000000 0.000000 
